<?xml version="1.0" standalone="no"?><!DOCTYPE svg PUBLIC "-//W3C//DTD SVG 1.1//EN" "http://www.w3.org/Graphics/SVG/1.1/DTD/svg11.dtd"><svg t="1598027395094" class="icon" viewBox="0 0 1140 1024" version="1.1" xmlns="http://www.w3.org/2000/svg" p-id="863" xmlns:xlink="http://www.w3.org/1999/xlink" width="222.65625" height="200"><defs><style type="text/css"></style></defs><path d="M598.7057 271.07113A271.07113 271.07113 0 1 0 869.776831 0a271.07113 271.07113 0 0 0-271.071131 271.07113z m0 0M718.019439 963.640758a38.675345 38.675345 0 1 0 19.337673-33.489741 38.675345 38.675345 0 0 0-19.337673 33.489741z m0 0M0 657.60042a20.592977 20.592977 0 1 0 20.592977-20.592977A20.592977 20.592977 0 0 0 0 657.60042z m0 0" fill="#E1F9FF" p-id="864"></path><path d="M949.324305 1024H202.552407a106.611249 106.611249 0 0 1-106.491697-106.491696V191.478824a106.611249 106.611249 0 0 1 106.491697-106.431919h746.771898a106.611249 106.611249 0 0 1 106.491696 106.491696v725.969703a106.611249 106.611249 0 0 1-106.491696 106.491696zM202.552407 140.205598a51.333003 51.333003 0 0 0-51.273227 51.273226v726.02948a51.333003 51.333003 0 0 0 51.273227 51.273226h746.771898a51.333003 51.333003 0 0 0 51.273226-51.273226V191.478824a51.333003 51.333003 0 0 0-51.273226-51.273226z" fill="#2166CC" p-id="865"></path><path d="M123.856747 272.939144h899.156942v55.21847H123.856747z" fill="#2166CC" p-id="866"></path><path d="M418.255626 823.375383L178.43262 661.082397l239.374683-171.84227 22.998978 32.040163-193.406614 138.845684 192.958291 130.581594-22.102332 32.667815zM713.790257 823.375383l-22.102332-32.667815 192.973235-130.581594-193.421558-138.845684 22.998978-32.040163 239.389627 171.84227-239.83795 162.292986z" fill="#3ABCFB" p-id="867"></path><path d="M626.040768 398.886204m17.022757 4.881197l-0.014365-0.004119q17.022758 4.881197 12.14156 21.903955l-126.771075 442.103279q-4.881197 17.022758-21.903955 12.141561l0.014366 0.004119q-17.022758-4.881197-12.141561-21.903955l126.771076-442.103279q4.881197-17.022758 21.903954-12.141561Z" fill="#3ABCFB" p-id="868"></path></svg>